<svg xmlns="http://www.w3.org/2000/svg" xmlns:xlink="http://www.w3.org/1999/xlink" width="80.44" height="35.452">
    <defs>
        <linearGradient id="a" x1=".5" y1="1" x2=".5" gradientUnits="objectBoundingBox">
            <stop offset="0" stop-color="#7883f6"/>
            <stop offset="1" stop-color="#3aa5d0"/>
        </linearGradient>
        <linearGradient id="b" y1="1" y2="0" xlink:href="#a"/>
        <linearGradient id="c" y1="1" y2="0" xlink:href="#a"/>
        <linearGradient id="d" y1="1" y2="0" xlink:href="#a"/>
        <linearGradient id="e" y1="1" y2="0" xlink:href="#a"/>
        <linearGradient id="f" y1="1" y2="0" xlink:href="#a"/>
        <linearGradient id="g" x1=".501" y1=".999" x2=".501" y2="-.001" xlink:href="#a"/>
        <linearGradient id="h" y1="1" y2="0" xlink:href="#a"/>
    </defs>
    <path d="M81.288 85.192c-1.02-4.431-5.565-4.288-5.565-4.288a5.186 5.186 0 0 0-3.331 1.349l-8.411 8.411a.392.392 0 0 1-.552 0l-8.394-8.327a5.037 5.037 0 0 0-3.052-1.417 3.864 3.864 0 0 0-.583-.02 5.4 5.4 0 0 0-4.515 2.458A5.565 5.565 0 0 0 46 86.4v18.137a6.2 6.2 0 0 0 .451 2.344 5.338 5.338 0 0 0 4.945 3.284 5.487 5.487 0 0 0 5.523-5.649v-3.579a.2.2 0 0 0-.063-.148l-2.981-2.981a.047.047 0 0 0-.08.034v6.754a2.575 2.575 0 0 1-.413 1.421 2.243 2.243 0 0 1-1.994 1.033 2.1 2.1 0 0 1-2.032-1.3 2.9 2.9 0 0 1-.245-1.176V91.739l14.271 14.309a.448.448 0 0 0 .637 0l14.317-14.182v13.027a2.411 2.411 0 0 1-2.445 2.15 2.1 2.1 0 0 1-1.88-1.033 2.677 2.677 0 0 1-.4-1.421v-6.775a.019.019 0 0 0-.034-.013l-3.027 3.027a.214.214 0 0 0-.063.152v3.575a6.06 6.06 0 0 0 .578 2.61 5.24 5.24 0 0 0 4.907 3 5.433 5.433 0 0 0 5.422-4.692 3.8 3.8 0 0 0 .059-.691V86.748a6.9 6.9 0 0 0-.165-1.556zm-3.71 2.879l-13.47 13.592a.562.562 0 0 1-.8 0l-13.3-13.339a2.771 2.771 0 0 1-.885-1.939 2.289 2.289 0 0 1 2.361-2.361 2.336 2.336 0 0 1 .864.232 3.113 3.113 0 0 1 .877.624l10.136 10.139a.492.492 0 0 0 .7 0c1.758-1.771 9.617-9.7 10.236-10.316a2.537 2.537 0 0 1 1.686-.675 2.394 2.394 0 0 1 2.361 2.487 2.529 2.529 0 0 1-.767 1.556z"
          transform="translate(-46 -80.9)" fill="url(#a)"/>
    <path d="M938.4 359.985a9.045 9.045 0 0 1-2.5-6.383 9.369 9.369 0 0 1 2.5-6.345 8.473 8.473 0 0 1 6.235-2.757 8 8 0 0 1 6.054 2.757 9.059 9.059 0 0 1 2.538 6.345 8.783 8.783 0 0 1-2.538 6.383 8.027 8.027 0 0 1-6.054 2.757 8.489 8.489 0 0 1-6.235-2.757zm1.45-6.383a5.864 5.864 0 0 0 1.307 3.845 4.916 4.916 0 0 0 3.482 1.341 4.752 4.752 0 0 0 3.335-1.341 5.574 5.574 0 0 0 1.412-3.845 5.443 5.443 0 0 0-1.412-3.769 5.125 5.125 0 0 0-3.335-1.379 5.279 5.279 0 0 0-3.482 1.379 5.721 5.721 0 0 0-1.307 3.767z"
          transform="translate(-898.382 -333.387)" fill="url(#b)"/>
    <path d="M1357.5 206.432a1.908 1.908 0 0 1 1.973-1.9v-18.426a1.96 1.96 0 0 1 1.935-1.973 1.913 1.913 0 0 1 1.935 1.973v18.424a3.876 3.876 0 0 1-3.87 3.87 1.9 1.9 0 0 1-1.973-1.968zm2.007-26.742v-.717a1.946 1.946 0 0 1 1.973-1.973 1.915 1.915 0 0 1 1.935 1.973v.717a1.982 1.982 0 0 1-1.935 1.973 2.018 2.018 0 0 1-1.973-1.973z"
          transform="translate(-1302.208 -172.948)" fill="url(#c)"/>
    <path d="M1559.243 355.19v7.1a1.931 1.931 0 0 1-1.918 1.918 1.974 1.974 0 0 1-1.885-1.56 8.233 8.233 0 0 1-4.819 1.56 8.433 8.433 0 0 1-6.16-2.643 9.258 9.258 0 0 1-2.461-6.375 9.141 9.141 0 0 1 2.462-6.375 8.232 8.232 0 0 1 10.978-1.121 1.967 1.967 0 0 1 1.885-1.594 1.939 1.939 0 0 1 1.918 1.956zm-3.841 0a5.331 5.331 0 0 0-1.412-3.731 4.473 4.473 0 0 0-3.369-1.484 4.371 4.371 0 0 0-3.369 1.484 5.31 5.31 0 0 0-1.379 3.731 5.418 5.418 0 0 0 1.379 3.731 4.563 4.563 0 0 0 3.369 1.412 4.674 4.674 0 0 0 3.369-1.412 5.47 5.47 0 0 0 1.41-3.731z"
          transform="translate(-1478.929 -334.919)" fill="url(#d)"/>
    <path d="M1525.5 178.906a2.338 2.338 0 0 1 2.336-2.306 2.4 2.4 0 0 1 1.459.506.5.5 0 0 1 .1.679.49.49 0 0 1-.687.093 1.477 1.477 0 0 0-.873-.3 1.32 1.32 0 1 0 0 2.639 1.479 1.479 0 0 0 .873-.3.5.5 0 0 1 .687.1.506.506 0 0 1-.1.679 2.52 2.52 0 0 1-1.459.485 2.328 2.328 0 0 1-2.336-2.275z"
          transform="translate(-1463.125 -172.565)" fill="url(#e)"/>
    <path d="M1636.917 179.577v1.779a.486.486 0 0 1-.481.481.5.5 0 0 1-.472-.392 2.07 2.07 0 0 1-1.206.392 2.112 2.112 0 0 1-1.543-.662 2.382 2.382 0 0 1 0-3.2 2.06 2.06 0 0 1 2.749-.278.494.494 0 0 1 .472-.4.488.488 0 0 1 .481.489zm-.961 0a1.336 1.336 0 0 0-.354-.936 1.125 1.125 0 0 0-.843-.371 1.093 1.093 0 0 0-.843.371 1.323 1.323 0 0 0-.346.936 1.36 1.36 0 0 0 .346.936 1.139 1.139 0 0 0 .843.354 1.173 1.173 0 0 0 .843-.354 1.374 1.374 0 0 0 .354-.936z"
          transform="translate(-1565.71 -173.236)" fill="url(#f)"/>
    <path d="M1757.471 180.163a.474.474 0 0 1 .687-.072 1.674 1.674 0 0 0 1.008.4 1.256 1.256 0 0 0 .624-.173.381.381 0 0 0 .165-.274.13.13 0 0 0-.03-.093c-.008-.03-.046-.063-.118-.11a2.078 2.078 0 0 0-.734-.257h-.008a3.576 3.576 0 0 1-.8-.236 1.5 1.5 0 0 1-.633-.531 1.108 1.108 0 0 1-.156-.578 1.279 1.279 0 0 1 .54-1.008 1.969 1.969 0 0 1 1.126-.337 2.384 2.384 0 0 1 1.374.5.51.51 0 0 1 .148.679.486.486 0 0 1-.679.126 1.543 1.543 0 0 0-.843-.337.92.92 0 0 0-.548.164c-.118.084-.148.164-.148.211a.1.1 0 0 0 .017.072.269.269 0 0 0 .1.093 1.831 1.831 0 0 0 .666.219l.008.008h.009a3.342 3.342 0 0 1 .852.266 1.408 1.408 0 0 1 .649.54 1.178 1.178 0 0 1 .173.6 1.33 1.33 0 0 1-.578 1.062 2.091 2.091 0 0 1-1.189.367 2.631 2.631 0 0 1-1.627-.632.5.5 0 0 1-.055-.669z"
          transform="translate(-1685.214 -172.853)" fill="url(#g)"/>
    <path d="M1860.612 140.394a.5.5 0 0 1-.51.5.519.519 0 0 1-.485-.375.611.611 0 0 1-.017-.126V135a.506.506 0 0 1 1.012 0v1.589a2.066 2.066 0 0 1 .978-.266 2 2 0 0 1 1.99 2v2.066a.5.5 0 1 1-1 0v-2.066a.982.982 0 1 0-1.965 0z"
          transform="translate(-1783.139 -132.24)" fill="url(#h)"/>
</svg>
